# xmcd CD database file
#
# Track frame offsets:
#	150
#	11492
#	23044
#	32423
#	47024
#
# Disc length: 797 seconds
#
# Revision: 1
# Processed by: cddbd v1.5.2PL0 Copyright (c) Steve Scherf et al.
# Submitted via: CDex 1.51
#
DISCID=2c031b05
DTITLE=Wacky Tobacco - Music sounds better with you
DYEAR=2017
DGENRE=Jazz
TTITLE0=All of me
TTITLE1=Cheek to cheek
TTITLE2=After you've gone
TTITLE3=Dark wacky eyes
TTITLE4=Honeysuckle rose
EXTD=YEAR: 2017
EXTT0=
EXTT1=
EXTT2=
EXTT3=
EXTT4=
PLAYORDER=
